<svg xmlns="http://www.w3.org/2000/svg" width="293" height="91" fill="none">
  <path fill="#fff" d="M32.403 20.138v.251c-.14 0-.353.111-.635.333-.17 0-.367.125-.593.376h-.127v-.25c-.255.25-.452.375-.593.375l.127.25c-1.779 1.25-2.782 1.876-3.008 1.876l.127.25c-.028.167-.225.32-.593.459v-.126l.085-.208h-.211l-.255.084c.114.333.24.5.382.5h.084c.735-.473 1.186-.709 1.355-.709v.126c-.536.777-1.143 1.167-1.821 1.167.03.166.114.25.255.25.14 0 .536-.167 1.186-.5l.127.25-1.906 1.418.084.25c0 .082-.31.403-.931.959h.084l.508-.126a.897.897 0 0 0 .466.125.942.942 0 0 0 .128-.5h.38v.125l-.255.375v.084h.467v.25c-.565.111-3.092 1.848-7.582 5.212-3.444 2.974-6.325 5.824-8.64 8.547-3.22 3.892-4.83 7.644-4.83 11.258l.128.459c0 .083-.042.125-.128.125.368 2.362.763 3.543 1.186 3.543 1.186 0 3.404-1.654 6.651-4.961 1.666-2.502 2.5-4.128 2.5-4.878v-4.378l.719-.834a8.524 8.524 0 0 1-.128-1.293l.255-.125c.085 0 .128.041.128.125l.254-.125.465.125.593-.334h.255c.96.584 1.439.932 1.439 1.043.99.64 1.554 1.07 1.695 1.293l.593-.084c.31 0 .55.584.72 1.752l-.127.5c0 .472-.042 1.765-.128 3.877.34 2.446.862 4.698 1.569 6.754-.142.084-.255.126-.34.126.113.334.31.5.593.5v.334c-.17 0-.254.042-.254.125.198.556.438 1.112.72 1.667l-.212.126c-.31-.64-.508-.96-.593-.96h-.127c0 .167.395 1.001 1.186 2.502v.085c0 .555-.635.833-1.906.833 0 .167-.283.25-.847.25-1.045-.222-1.85-.736-2.415-1.543-.45-.5-1.058-1.64-1.82-3.418-3.502 3.307-6.029 4.961-7.582 4.961H9.868c-.819 0-1.778-.36-2.88-1.083-3.078-1.113-5.012-2.489-5.803-4.13C.65 54.384.381 53.078.381 51.91c.056 0 .085-.041.085-.125-.113 0-.268-.277-.466-.833.17-3.113.565-4.851 1.186-5.212h.381c.226-.445.34-.75.34-.916l-.213.083c-.113 0-.24-.112-.38-.334.253 0 .62-.64 1.1-1.919.113 0 .353-.305.72-.916l.255.083c.14 0 1.143-1.293 3.007-3.878v-.125c-.593.694-1.003 1.042-1.228 1.042l-.128-.208c3.135-3.92 6.636-7.283 10.505-10.09a36.51 36.51 0 0 1 3.728-2.585c.084.139.127.25.127.334l-.255.458 1.102-.71h.212v.252h.127v-.251c-.085 0-.127-.027-.127-.083l2.286-1.543c.735-.556 1.667-1.029 2.796-1.418v-.125h-.128c-.536.222-.86.334-.973.334v-.459c.48 0 1.13-.361 1.949-1.084h.212v.375l-.128.209h.128c.366-.222.648-.334.846-.334l.255.125c1.326-.64 2.131-.959 2.413-.959 1.017-.639 1.78-.959 2.288-.959Zm-4.363 1.085v.125c0 .111-.31.305-.93.583h-.383v-.375c.198 0 .636-.111 1.313-.333Zm-.93 1.167h.084c.168 0 .253-.07.253-.208h-.127c-.141 0-.21.07-.21.208Zm-.976-.125-.128.25v.125h.128c0-.167.085-.25.255-.25v-.125h-.255Zm-2.88 1.209h.34v.25h-.34v-.25Zm-.635.334c.169.028.254.11.254.25-.763.5-1.37.973-1.821 1.417-.114 0-.551.236-1.314.71h-.127v-.21c.621-.472 1.03-.709 1.229-.709 0-.277.593-.764 1.779-1.458Zm3.389.959h-.128l-.34-.251v.502c-.168.082-.295.124-.38.124v.125h.255c.846-.501 1.327-.751 1.44-.751v-.209c-.113 0-.396.154-.848.46Zm-3.982 2.502h.127c.169 0 .254-.084.254-.251v-.126c-.113 0-.239.126-.381.377Zm-1.186.583v.126c.084 0 .197.04.338.124v-.25h-.338Zm-.974.376v.083h.254v.25h-.254v.125h.127a.9.9 0 0 1 .466-.125c0-.111-.156-.222-.467-.334h-.127Zm-3.855.708c0 .222-.155.334-.466.334v.125h.212l.38-.46h-.127Zm3.262.084-.128.25v.125h.128c0-.167.084-.25.254-.25v-.126h-.254Zm.593 2.25c.028.168.112.252.254.252.112-.307.226-.46.339-.46h.127c.197.14.353.209.466.209.366-.14.578-.293.635-.458-.17 0-.255-.084-.255-.251v-.083c.198 0 .48-.167.848-.501h.127v.125l-.127.251h.465c0-.084.043-.21.128-.376h-.34v-.209c.057-.25.368-.416.932-.5 0-.166-.07-.25-.21-.25-.566.029-1.696.779-3.39 2.252Zm-2.033-1.167v.126c.027.166.098.25.211.25l.128-.251v-.125h-.34Zm3.981.584v.126h.084c.17 0 .255-.084.255-.251v-.083h-.127c-.141 0-.212.07-.212.208Zm-6.057.71c0 .082-.029.208-.085.375.113 0 .268.083.466.25l.255-.377v-.124l-.255.125-.381-.25Zm-.593 1.083h.127c.31-.111.466-.236.466-.375h-.212c-.113 0-.24.124-.381.375Zm-1.186.709v.25h.339v-.25h-.34Zm-.508.458v.377c.168 0 .254-.084.254-.251v-.126h-.255Zm-.467.377c0 .082-.042.193-.127.332h.127l.255-.333h-.255Zm-9.149 6.628.128.251-.255.125H3.6v-.126c.029-.167.113-.25.255-.25ZM2.16 43.738v.125c.113 0 .24-.125.382-.376h-.128c-.17.03-.254.112-.254.251Zm59.215-20.723.127.251-.381.917v.125h.127v-.25h.255v.25l-1.44 2.668v.126h.127c.818-1.53 1.425-2.46 1.821-2.795v.251a130.214 130.214 0 0 0-3.389 6.13v.125h.128c.056-.334.196-.501.422-.501h.128v.25l-.296.375v.25l.55-.625.255.125c0-.11.127-.236.38-.375v.125c0 .25-.127.584-.382 1 .086.168.128.348.128.543h-.128l-.253-.125-.128.25c.255 0 .383.084.383.25-.48.194-.75.444-.806.75.198.029.297.112.297.251v.125c0 .193-.523.75-1.568 1.668v.125l.255-.125c.169.028.254.11.254.25-.141 0-.438.555-.89 1.668-.367.417-.677 1.237-.931 2.46l-.509.875h.128l.253-.125c0 .083.043.125.128.125l-1.568 3.21c-.367.501-.62.751-.762.751l.127.251c0 .444-.352.958-1.058 1.542l.126.25-1.397 2.71h-.383l.128.625c-1.073.695-1.637 1.419-1.694 2.169 0 .277-.918 1.598-2.754 3.961.086 0 .353-.167.805-.5v.125a28.555 28.555 0 0 1-3.642 3.46c0 .418-.608.848-1.821 1.293-.904.584-1.765.875-2.584.875-1.75 0-4.222-.986-7.413-2.96-2.259-2.39-3.389-5.24-3.389-8.547 0-3.558.863-7.603 2.584-12.133.989-1.724 1.681-2.586 2.076-2.586.367 0 .55-.126.55-.375l2.203.626c.678.611 1.017 1.25 1.017 1.918-.593.916-.89 1.556-.89 1.917h.127c-.17 2.752-.339 4.587-.508 5.505a.983.983 0 0 1 .508.125c-.367 1.778-.621 2.765-.762 2.96l.127.25v.75h-.297v-1.125h-.127c0 .305-.085.903-.254 1.793h.255v-.251h.296v.125c-.367.251-.551.459-.551.625v.377h.127v-.502h.255v1.92c0 .193.056.36.169.499l-.17.25c.114.167.17.306.17.417-.113 0-.17.042-.17.125.141 0 .41.89.805 2.669.339.473.509.861.509 1.167h.507c1.695-.973 3.742-3.03 6.142-6.17l3.346-5.462 7.413-13.719c2.795-5.003 4.448-7.56 4.956-7.671 0 .083.043.125.127.125l-.127.292v.125l.762-.668c.155.087.33.13.509.126 0-.251.183-.459.55-.626Zm-2.5 1.793v.375h.128c.142 0 .283-.125.424-.375v-.375H59.3c-.141 0-.283.125-.425.375Zm-.38.75v.418c.141 0 .269-.14.381-.417v-.126c-.17.084-.296.126-.381.126Zm-1.27 8.465a.768.768 0 0 1-.17.5h.17l.127-.25v-.25h-.127ZM37.062 42.32h.255v.125l-.382 1.792h-.254c0-.278.127-.917.382-1.918Zm-1.016 3.585-.17.25v.625h.17c0-.222.085-.473.255-.75l-.255-.125Zm17.112 1.417h.127c-.255.501-.382.793-.382.876h-.253v-.25c.226-.417.395-.626.508-.626Zm-.89 1.25h.255v.293c0 .167-.086.251-.255.251h-.127c.085-.168.128-.348.128-.543Zm-5.718 7.965h.128c.168 0 .254-.096.254-.292v-.126c-.113 0-.24.14-.383.418h.001Zm-.38.25c0 .167-.085.25-.256.25v.126h.255l.255-.376h-.255ZM75.564.376a.87.87 0 0 1 .127.459l.211-.125v.125c-.14.305-.212.584-.212.834h.086l.593-.377.127.251c-1.102 2.78-1.652 4.295-1.652 4.545h-.128l.128.208-1.186 2.711h.339c.084-.556.255-.834.507-.834 0 .11.114.236.34.375.085-.167.127-.292.127-.375h.128c.14.028.211.11.211.25-.339.611-.58.917-.72.917v.126c.17.194.255.347.255.458h.126c.113 0 .268-.236.466-.71V8.63c.112 0 .268-.194.465-.584l-.127-.208.975-2.335c0-.139-.156-.291-.466-.458-.142 0-.311.153-.508.458.112 0 .31.195.593.584-.537.723-.89 1.223-1.059 1.501h-.213V7.38h-.253c0 .444-.085.666-.255.666-.14 0-.21-.069-.21-.208.281-.444.522-1.029.719-1.751.705-1.778 1.058-2.71 1.058-2.794l.34-.25h.127a3.553 3.553 0 0 0-.128.834c.255 0 .383.154.383.459l-.255.125.127.668h.212c.028-.39.31-.85.847-1.376 0 .083.042.125.127.125-.1.29-.313.53-.593.666 0 .084.042.125.128.125-.255 1.224-.538 2.28-.848 3.169l.255.125c.28-1.111.592-1.779.93-2 0 .082.043.125.128.125-.085.86-.212 1.403-.382 1.626h.382c0 .083-.043.125-.127.125l.127.583a349.63 349.63 0 0 0-3.685 11.09c.621 0 .93.029.93.084l.256-.083c1.5.006 3-.078 4.489-.25.17.083.297.124.382.124.113-.138 1.059-.263 2.838-.375.141.084.255.126.339.126a.983.983 0 0 1 .508-.126c0 .167.07.251.212.251.028-.167.112-.25.254-.25h1.059l.593-.084c0 .056.042.083.127.083 0-.11.706-.263 2.118-.458v.125l2.965-.459c.14.084.301.127.465.126.03-.168.113-.251.255-.251h.128a.9.9 0 0 1 .464.125.898.898 0 0 1 .467-.125l.255.125c0-.11.111-.235.338-.375.14.084.255.125.339.125.027-.139.113-.208.254-.208h.339l-.085.208h.339c0-.222.833-.458 2.498-.708a.905.905 0 0 0 .467.125c.254 0 .607-.154 1.058-.459 0 .167.113.25.34.25.225 0 .507-.126.847-.375a.89.89 0 0 1 .465.125c.17-.084.297-.125.381-.125l.212.125c.678-.362 1.468-.625 2.372-.792 0-.084.085-.125.255-.125.028.138.098.208.212.208.254 0 .776-.153 1.566-.458a.909.909 0 0 0 .467.125h.254v-.125c-.085-.14-.128-.251-.128-.334h.128a.89.89 0 0 1 .465.125l4.151-1.084h.128l-.128-.209v-.125c.141.029.212.112.212.25l.255-.125.254.126a54.612 54.612 0 0 1 5.295-1.419h.38v-.333h.467c.79-.138 1.186-.305 1.186-.5l.338.25c.424-.221 1.059-.459 1.906-.709v-.125l.593.125c1.328-.473 2.359-.737 3.093-.792 0-.084.084-.125.254-.125l.211.125 1.186-.5h.254l.339.25h.127l-.127-.25a4.717 4.717 0 0 0 1.187-.584h.338c0-.111.127-.222.381-.333 0 .11.114.222.339.333 0-.14.128-.209.381-.209l.593.126c0-.167.071-.251.212-.251.17.084.297.125.381.125l.593-.458h.085l-.085.208v.126h.085c1.327-.417 2.202-.765 2.627-1.042l.593.124c.027-.167.112-.25.254-.25l.211.125h.128v-.126h-.255v-.25l.848.126h.126l-.126-.209v-.125l1.058-.375v.125l-.127.251h.593c.254-.223 1.243-.502 2.965-.835.028-.11 1.059-.416 3.093-.916.027-.167.112-.251.253-.251l.212.125c.395-.167 1.907-.555 4.533-1.167 0-.084.028-.126.084-.126h.974l.593.126v-.46c.113 0 .579-.125 1.398-.374h.466v.126l-.085.249h.085c.989-.305 1.624-.459 1.906-.459v.084c-.084.222-1.539.653-4.363 1.293l-8.556 2.335v.249h.127c.735-.25 1.172-.375 1.313-.375v.125l.467-.208a.982.982 0 0 0 .338.083c.396-.194.593-.348.593-.459l.593.126c.396-.306.678-.46.848-.46l.593.126c.027-.167.112-.25.253-.25l.212.125c0-.25.523-.444 1.568-.584h.211v.334h.382l-.128-.584h.721l.677-.458h.127l.254.125c.029-.167.099-.25.212-.25h.127c0 .194.085.388.254.583l-.381.458c.085 0 .127.043.127.126h-.127c-.141 0-.212-.111-.212-.334-.169.029-.254.097-.254.208.17.084.296.126.382.126 0 .277-.565.43-1.695.458.085-.139.127-.25.127-.333h-.127c-.113.083-.339.125-.677.125 0 .138.112.208.338.208v.25l-.593.126-.127-.25c0-.084.042-.126.127-.126l-.127-.208v-.126h.382v-.124c-.086 0-.212-.042-.382-.126-.232.17-.515.258-.805.251v.25c.17 0 .396.11.678.334h.127l-.212.333c.056.167.085.292.085.376-.904.222-1.497.416-1.779.583-.141 0-.212-.083-.212-.25 1.186-.361 1.779-.598 1.779-.71h-.466v-.208h.212v-.25h-.127c-.508.556-1.059.834-1.652.834-.084-.166-.127-.291-.127-.375h-.085l-.381.25-.212-.125-.127.251h.339v.207c-1.411.418-2.118.695-2.118.835h.127l.805-.125v.125c0 .139-.635.375-1.906.708 0 .084-.071.126-.212.126-.254 0-.381-.167-.381-.501h-.212c-.338.557-.664.835-.974.835v-.126c-.31.167-.579.251-.805.251v-.25c.593-.14.947-.21 1.059-.21l-.127-.25c-4.348 1.167-6.551 1.835-6.607 2.002a45.72 45.72 0 0 0 5.209-1.418c0 .084.353.32 1.059.709-.282.139-.762.292-1.44.459v-.125l-.212.125h-.465c.112-.279.621-.431 1.524-.46 0-.166-.084-.25-.254-.25h-.593c-.734.252-1.2.376-1.398.376h-.254c0 .251-.635.473-1.906.667 0 .167-.226.25-.677.25l.084.25c.367-.166.89-.25 1.567-.25h.212c0-.305.24-.458.72-.458h.593v.208h-.211c-.254 0-.735.167-1.44.5-.622 0-1.611.306-2.965.917-.791 0-1.186.112-1.186.334a.992.992 0 0 0-.34-.083l-.508.209c0-.14-.071-.209-.212-.209 0 .278-.437.473-1.312.584l-.255-.126h-.085v.126h.212c0 .139-.07.208-.212.208l-.593-.125c-.028.112-.423.347-1.186.71 0-.085-.042-.126-.127-.126-.084.167-.127.292-.127.376h-.127c0-.168-.042-.25-.126-.25l-.213.125-.254-.126c-.084 0-.282.194-.593.584 0-.14-.071-.209-.212-.209h-.381c-.311.222-1.016.444-2.117.667-.086-.306-.24-.458-.467-.458-.169.083-.296.125-.381.125v.126c.339 0 .509.068.509.207-.481.195-.721.362-.721.5h.128l-.128.21v.125c2.824-.695 5.069-1.363 6.735-2.002.085 0 .128.041.128.125.621-.306 1.058-.46 1.312-.46l.212.126c0-.167 1.355-.598 4.067-1.293 9.261-2.64 14.627-4.113 16.095-4.419v.209l-13.723 3.877c-1.131.306-1.766.528-1.907.667-.366 0-2.301.514-5.803 1.544-.253.138-1.764.57-4.532 1.292-.113 0-.508.18-1.186.542a.988.988 0 0 0-.338-.084c-.086.14-.128.251-.128.334l-.593-.125h-.127v.125h.255v.25c-1.977.362-3.079.71-3.304 1.042-.17-.083-.297-.125-.382-.125-.31.278-1.651.709-4.023 1.293 0 .083-.043.125-.128.125-.141-.083-.254-.126-.338-.126l-.127.209-.594-.083c-.253 0-.522.152-.804.458-.17-.083-.297-.125-.382-.125l-.127.25-.212-.125h-.254c0 .222-.07.334-.211.334h-.254l-.593-.125c0 .167-.198.334-.593.5l-.721-.125c-1.045.695-5.619 1.78-13.722 3.252-1.977.39-4.548.778-7.71 1.167v-.124c-4.603.723-9.432 1.084-14.486 1.084h-.212c-.283.278-1.073 3.03-2.372 8.256-3.813 11.814-6.861 20.055-9.149 24.724-.198.695-.706 1.363-1.525 2.002h-.255c-.79 0-1.186-.083-1.186-.25l-.21.125h-.128L55.785 60c-.085 0-.213.028-.382.083-.565 0-1.115-.389-1.652-1.168 1.892-3.919 3.276-7.101 4.151-9.548l2.117-5.504c0-.194.438-1.389 1.314-3.585 1.101-3.252 2.244-7.185 3.43-11.8.142 0 .467-.889.975-2.668-3.812-.64-6.34-1.419-7.582-2.335-.395 0-1.468-.778-3.22-2.335v-.376h.256v-.208c-.396-.584-.636-1.32-.72-2.21-.086 0-.128-.041-.128-.125l.127-.25a.865.865 0 0 1-.127-.458h.127l-.127-.251v-.083c.085-1.168.324-1.751.72-1.751l5.548 2.543 3.558.96.255-.126c.451.139 1.44.334 2.965.584.395-1.001.79-2.252 1.186-3.753a47.89 47.89 0 0 1 1.99-6.17c.114-.612.312-.918.594-.918 0-.083-.03-.125-.085-.125 0-.75.31-1.418.931-2.001l-.126-.209c.537-.389.89-.584 1.058-.584 0-.25-.027-.375-.084-.375 0-.167.113-.625.339-1.376h.593c.508-1.584 1.1-2.752 1.78-3.502Zm1.059 1.96h.255v.376h-.51v-.126c.03-.167.114-.25.255-.25Zm78.953.583v.251c-.564.139-.89.208-.974.208l-.127-.208a2.64 2.64 0 0 1 1.101-.25Zm.593.376h.339v.207h-.593c.028-.139.113-.208.254-.208v.001Zm-.381.208c0 .195-.466.347-1.398.46l-.127-.21c.791-.166 1.299-.25 1.525-.25Zm1.652.125h.255c0 .195-.354.306-1.06.334v-.21l.805-.124Zm-6.862.917v.125h.127c.621-.083.932-.194.932-.333h-.128c-.055 0-.366.068-.931.208Zm4.617-.333v.25l-.212-.125c0 .14-.085.209-.254.209h-.127c-.141 0-.212-.07-.212-.21l.805-.124Zm-.805.25-.254.334c.085.139.127.25.127.334h-.127l-.339-.21h-.381l.127.21v.125h-.254c-.113 0-.226-.112-.339-.335.17-.166.649-.318 1.44-.458Zm-1.779.334.212.584-.339.25h-.127c-.169 0-.254-.084-.254-.25h.508v-.126h-.508c0 .167-.071.251-.212.251-.169 0-.254-.084-.254-.25 0-.14.324-.292.974-.46Zm-1.779.458h.593c0 .306.071.46.212.46h.974v.125c0 .166-.367.291-1.102.374v-.125l.128-.25c-.424 0-.692-.153-.805-.458v-.126Zm-.593.376-.127.208v.125a.9.9 0 0 1 .466-.125V5.71a.987.987 0 0 1-.339-.083v.001Zm-74.549.082-.127.584c.114 0 .269-.152.467-.458l-.255-.126h-.084Zm73.236.377v.207c.169 0 .255.084.255.251h.338c.169 0 .255-.084.255-.25-.17 0-.255-.07-.255-.21h.339v-.25c-.226.168-.536.252-.932.252Zm2.499.333h.212v.25h-.466c.029-.166.113-.25.254-.25Zm-76.116.25c0 .111-.07.264-.212.459v.125c.114 0 .27-.154.467-.46l-.255-.124Zm68.281.917c.084 0 .197.042.338.126h.127v-.126c-.141 0-.212-.07-.212-.208-.169.028-.253.096-.253.208Zm-6.058-.208h.127v.083c0 .167-.07.25-.211.25l-.128-.25.212-.083Zm2.838.458a.863.863 0 0 1 .127.46h.127c0-.14.113-.335.339-.584h-.212c-.169.083-.296.125-.381.125v-.001Zm2.753-.125.127.25c.142-.083.254-.125.34-.125v-.125h-.467Zm.72.333h.085c.169 0 .255-.069.255-.208h-.128c-.141.029-.212.097-.212.208Zm5.21-.332h.339v.25h-.339v-.251ZM76.157 9.213c.227 0 .425-.389.594-1.168h-.127c-.226 0-.383.39-.467 1.168Zm62.436-.667 1.439-.375v-.126h-.127c-.875.112-1.312.28-1.312.501Zm3.938-.125h.212c.169-.083.297-.126.381-.126v-.124h-.381c-.141.028-.212.11-.212.25Zm5.676-.376.127.251-.338.25h-.847c0-.139.352-.306 1.058-.5Zm-3.43.251h.465c0 .167-.07.25-.212.25h-.253v-.25Zm-7.244.333v.251h.127l.254-.125a.904.904 0 0 0 .466.125h.127c0-.112-.155-.222-.465-.334 0 .056-.042.083-.128.083v-.082a1.36 1.36 0 0 1-.381.083Zm8.556-.083h.127c.142 0 .212.07.212.209v.125h-.339v-.334Zm-15.884 2.21v.125h.339c.282-.167.805-.334 1.567-.5 0 .111.113.236.34.376h.126c-.169-.195-.254-.32-.254-.377.254-.139.494-.208.721-.208l.593.125-.128-.25 3.685-1.042v-.25l-6.989 2Zm14.698-1.876h.467c0 .167-.086.25-.255.25h-.212v-.25Zm-6.396.25v.208c.254 0 .452.042.593.126v-.251l-.593-.083Zm-67.814.584v.583h.128l.127-.583h-.254Zm66.374 0c.029.139.113.208.254.208h.128c0-.139-.086-.208-.255-.208h-.127Zm-7.581.083v.125h.465v-.125h-.465Zm12.198 0h.381c0 .167-.084.25-.254.25h-.127v-.25Zm-66.967.5v.209c.17-.083.297-.126.383-.126v-.332h-.128c-.17.027-.255.11-.255.25Zm-1.397-.125v.334c.142 0 .212-.07.212-.209v-.125h-.212Zm67.771-.125v.25l-.593.083c0-.166.198-.278.593-.333Zm-1.398.333h.593v.251c-.282.083-.452.126-.508.126l-.085-.251v-.126Zm-11.521.96v.125h.254c.141 0 .381-.084.72-.25.142.083.254.124.34.124l.126-.25h-.254c-.198 0-.593.084-1.186.252v-.002Zm-3.77-.126v.125h.467v-.125h-.467Zm2.372.71h.339l.34-.252c.168.084.296.126.38.126l.127-.25c-.169 0-.254-.027-.254-.083-.621.167-.932.32-.932.458Zm4.829.125h.127c.17 0 .254-.084.254-.251h-.126c-.17.029-.255.112-.255.25Zm1.567 0c0-.084-.042-.126-.126-.126 0 .14-.834.404-2.5.792v.251h.381c.198-.14 1.144-.444 2.838-.917v-.251h-.254l-.339.25Zm-5.591 1.042h.381v-.251h-.127c-.169.029-.254.112-.254.25Zm1.314 0v.208l1.186-.083v-.125c-.086 0-.198-.042-.34-.126-.275.079-.56.121-.846.126Zm-55.362.125v.333h.382v-.333h-.382Zm52.269.791v.126h.254c.283 0 1.144-.236 2.584-.708v-.126h-.338c-.452.251-1.286.487-2.5.71v-.002Zm-.212-.332h.212c.17-.084.297-.126.381-.126v-.125h-.381c-.141.029-.212.112-.212.25Zm-2.753.709v.208l.848-.125-.128-.209-.72.126Zm-.593.083v.125h.509l-.128-.208a1.363 1.363 0 0 1-.381.083Zm2.499.125h.254c.141 0 .212-.07.212-.208h-.212c-.169 0-.254.07-.254.208Zm-1.397.125v.25c.254 0 .452.028.593.083 0-.222.225-.333.677-.333v-.25h-.084c-.565.167-.961.25-1.186.25Zm-2.754.25v.083h.466c.169 0 .255-.07.255-.208-.086 0-.128-.042-.128-.125-.254.166-.452.25-.593.25Zm1.907.083v.126a.897.897 0 0 0 .465-.126l.254.126h.128v-.126c-.254 0-.382-.11-.382-.333-.31.111-.465.223-.465.333Zm-3.558.96v.125h.126l1.525-.376c.17.084.297.125.382.125v.125c0 .14-.085.209-.254.209-.17 0-.326-.028-.467-.083l-.719.333-.255-.126c0 .112-.197.265-.593.46h-.212l-.254-.126c0 .167-.198.251-.593.251l.128.25-.255.084c0-.14-.071-.21-.212-.21-.169.085-.296.126-.38.126.168.195.254.347.254.458h.253l-.127-.25v-.125l.593.125c.141 0 .212-.07.212-.208l.255.084h.254l-.128-.21.212-.125c.028.168.114.251.255.251h.254l-.128-.25.212-.125v.25c1.017-.194 1.695-.472 2.034-.834l-.128-.209.382-.583h-.593v.334h-.128v-.334l-1.905.583Zm-2.033.667h.507c.142 0 .212-.07.212-.21h-.465c-.17.03-.254.1-.254.21Zm-3.051.708v.126h.467v-.251h-.127c-.142.084-.254.125-.34.125Zm2.712 0v.126c.028.167.112.25.253.25h.086v-.376h-.339Zm-.933.126a.854.854 0 0 1-.127.458h.339v-.208l.254.083h.339v-.083c0-.167-.07-.251-.212-.251h-.593Zm-.593.25c0 .139-.084.208-.253.208.028.167.112.251.253.251h.212v-.125l-.126-.251c.084 0 .126-.027.126-.083h-.212Zm-4.023 1.042.084.208c-.141.084-.254.126-.338.126.027.167.113.25.254.25.847-.333 1.397-.612 1.651-.834.198 0 .424.084.679.25l.126-.25c-.084 0-.126-.042-.126-.126l.593.126.719-.209c0-.166-.07-.25-.212-.25h-.126l-.381.25c0-.166-.029-.25-.086-.25-.169.084-.296.125-.381.125v-.125c-1.242.472-2.061.709-2.456.709Zm-1.568.584c.029.139.113.208.254.208.565 0 .876-.111.932-.333l-.593-.125v.25h-.127v-.25h-.212c-.169.028-.254.11-.254.25Zm-.932.125v.083l.721.125c0-.11-.128-.221-.382-.333-.141.084-.253.125-.339.125ZM85.264 29.687h1.864c4.49 0 8.02 1.987 10.59 5.963.79 1.75 1.369 3.446 1.736 5.085l-.17.751v.625c0 .222.058.431.17.626a26.33 26.33 0 0 1-2.33 7.213c0 .973-.734 2.46-2.202 4.461-.904.167-1.99.931-3.261 2.294-.96.417-2.217 1.126-3.77 2.127h.17c1.298-.39 2.075-.584 2.328-.584v.291L83.063 61c-1.948 0-3.967-.723-6.057-2.168-.819-.778-1.807-2.154-2.965-4.127 0-.14-.578-1.571-1.737-4.295-.113-1.223-.268-1.835-.466-1.835 0-3.697 1.977-6.726 5.93-9.09 1.44-.639 2.796-1.097 4.066-1.375 0-.111.043-.167.128-.167 1.327.278 2.216.792 2.668 1.543 0 .195.255.709.762 1.543v.458c0 .584-.564 1.306-1.693 2.168.197.028.296.125.296.292-.79.39-1.469 1.112-2.033 2.169v.29h.17l.803-.458h.594l-3.262 2.294c-1.157 1.194-1.892 2.377-2.202 3.544 0 .222.423.528 1.27.917h.763c1.892 0 4.547-.82 7.964-2.46 2.427-1.779 4.15-3.725 5.167-5.837.706-1.279 1.214-3.017 1.524-5.212V38.11c-.734-1.14-2.342-2.001-4.828-2.586-.931 0-1.709-.11-2.33-.333l-2.668.334v-.334c.141 0 .72-.096 1.737-.292h2.668l.763.125.17-.291-.34-.167c-.875.11-1.596.167-2.16.167l-2.373-.75h-.294c-.226 0-.439.04-.637.125a1.328 1.328 0 0 0-.593-.126l-.803.126c-.566-.695-.976-1.042-1.23-1.042-.423-.168-.635-.32-.635-.46 0-.11.212-.431.635-.959 0-.417-.267-.82-.803-1.209 1.242-.5 2.652-.75 4.233-.75Zm33.293 2.918v.126c-.112.278-.409.416-.89.416v.292h.297c.254-.195 1.059-.431 2.415-.708l.72.166c.056 0 .254-.055.593-.166.903 0 2.47.569 4.701 1.709.763.64 1.144 1.015 1.144 1.126-.084.166-.127.305-.127.416.734.473 1.779 1.404 3.134 2.794 1.299-1.335 3.347-2.599 6.142-3.794l.72-.126v.126c.424-.362 1.469-.737 3.134-1.126v.167l.848-.292c.169.083.31.126.423.126.678-.084 1.059-.126 1.143-.126.114 0 .692.18 1.737.542 0-.14.184-.278.551-.417a50.586 50.586 0 0 1 4.575 2.126 8.237 8.237 0 0 1 2.711 1.543c1.186.278 2.513 1.682 3.981 4.21 1.044 1.197 1.624 1.85 1.736 1.96.481 1.363.721 2.21.721 2.544-.113 0-.17.042-.17.125.198 0 .297.14.297.417-.198.195-.339 1.182-.424 2.96-1.072 2.53-4.447 5.712-10.123 9.549-5.083 3.42-9.615 6.143-13.597 8.172-3.585 2.418-6.72 4.712-9.403 6.88-6.721 6.365-10.392 10.299-11.012 11.8-1.384 1.89-2.147 2.835-2.288 2.835h-.424v.125l.296.416h-.168l-.255-.125h-.423c0-.222-.197-.361-.593-.416v-.417h-.296c0 .278-.086.417-.255.417h-.169v-.167c0-.167.197-.625.593-1.376l-.297.126c-.198 0-.296-.098-.296-.293 1.045-1.584 1.665-2.376 1.863-2.376v-.126c-.564 0-.846-.139-.846-.417l1.27-1.71.297.126c0-.584.522-1.418 1.566-2.502h.128v.126l-.424.583v.417h.17c.141 0 .381-.278.719-.833v-.46c-.309 0-.465-.083-.465-.25 1.807-2.363 2.951-3.544 3.43-3.544v.292h.297l-.297-.417c.311-.5 1.032-1.348 2.161-2.543v-.126h-.127c-.198.084-.354.126-.466.126 0-.14.339-.459 1.016-.96l.297.126h.127v-.126h-.296c.028-.193.127-.29.296-.29l.297.124h.127v-.125h-.297v-.292c0-.166.156-.25.466-.25v-.291c-1.158.777-1.736 1.236-1.736 1.375-1.186 1.056-1.808 1.585-1.865 1.585h-.126v-.167l.126-.293h-.126c-.114 0-.537.432-1.271 1.293v.126h.254v.291c-.282.473-1.044 1.321-2.287 2.544l-.678-.584c.085-.111.127-.347.127-.708h-.127v-.126c0-.195.184-.292.55-.292l-.126-.292c0-.139.564-.514 1.694-1.126.762-.638 1.765-1.71 3.007-3.21h-.127l-.297.126-.169-.251c.311-.111.608-.444.89-1h.254v-.126l-.127-.291a2.78 2.78 0 0 1 1.017-.417l-.17-.293.847-.584c-.084 0-.127-.041-.127-.125 1.271-.834 1.99-1.25 2.16-1.25a14.903 14.903 0 0 0 2.542-2.418c.705-.501 1.849-1.196 3.43-2.084 0-.39.58-.905 1.737-1.544h-.423v-.166c1.411-1.029 2.315-1.544 2.711-1.544v.167l.254-.166.593.166 1.863-1c.988-.834 1.61-1.251 1.864-1.251v-.167h-.593v-.25c.226 0 1.412-.75 3.558-2.252l3.855-2.418c.112 0 .268-.041.465-.125.141.084.325.125.551.125.536-.473.918-.89 1.144-1.25.677 0 1.016-.377 1.016-1.126h.254v.416h.17c.141 0 .282-.139.423-.416l-.296-.417c0-.084.565-.556 1.694-1.419h.17l.296.167c0-.25.184-.443.551-.583 0-.556.198-.834.593-.834.564-.556.847-.973.847-1.25.169 0 .409-.53.72-1.585.226 0 .466-.46.72-1.376 0-1.14-2.202-1.987-6.608-2.543-.395 0-.918-.043-1.566-.126-2.514.167-4.943.96-7.286 2.377-2.626 1.723-4.857 3.975-6.693 6.754-.62.752-1.341 1.877-2.16 3.377l.169.25-1.863 4.504c-.254 0-.776.334-1.567 1h-.424c-1.722-1.445-2.584-2.431-2.584-2.96 0-.556-.141-.833-.423-.833 0 .194-.099.291-.297.291h-.296c0-.389-.381-1.237-1.144-2.543.198-.667.536-1.376 1.016-2.126a1.041 1.041 0 0 1-.126-.542c.31-.111.734-.681 1.27-1.71l-.127-.25c.396-.11.819-.625 1.271-1.543-.085 0-.127-.056-.127-.167l.551-.416-.128-.292v-.125l1.398-4.336.17-.71c-.17-1.418-.367-2.126-.593-2.126-4.462 0-9.743 4.226-15.842 12.675 0 .14-.325.736-.974 1.793l-1.737 4.503.424.71-.128.583c.086.166.128.347.128.541l-.721.418h-.423c-.084 0-.126-.042-.126-.125-.198.083-.34.125-.425.125-.113 0-.734-.612-1.863-1.835-.141 0-.565-.598-1.271-1.793-.113 0-.451-.292-1.016-.875 0-1.473.239-2.682.719-3.628-.197 0-.296-.139-.296-.417.283-.806.48-1.237.593-1.293l-.169-.291v-.25c.225-.223.465-.835.719-1.834.339 0 1.003-.71 1.991-2.128.452 0 .833-.375 1.144-1.125l.593-.542-.17-.292c.876-1.39 1.737-2.46 2.584-3.21.198 0 .622-.473 1.272-1.419l3.6-3.251h-.17c-.169.11-.31.166-.423.166V35.4c0-.167.339-.348 1.016-.543.029.195.128.293.296.293.284-.195.509-.293.679-.293v-.416h-.128c-.197.084-.338.125-.423.125v-.125c1.214-.917 2.4-1.529 3.558-1.835h.169Zm-1.864 1.126v.126h.424c.142 0 .283-.14.424-.418h-.128c-.31.195-.55.292-.72.292Zm15.418 26.976h.128c.395-.139.593-.278.593-.417h-.297c-.141 0-.282.14-.424.417ZM121.946 70.84c.056.195.155.292.296.292h.169a1.027 1.027 0 0 1-.169-.584c-.197.029-.296.125-.296.292Zm-3.855 2.544-.254.416.254.126c0-.278.099-.417.297-.417v-.125h-.297Zm-2.117 3.628.126.291-.254.125h-.169v-.125c.028-.195.127-.291.297-.291Zm-3.728 2.834v.417h-.296v-.167c.056-.167.155-.25.296-.25Zm-.551.71.255.125h.465c-.734 1.25-1.256 1.945-1.567 2.084h-.169v-.125c.112-.167.169-.306.169-.417l-.72.709-.169-.292c.677-1.056 1.257-1.751 1.736-2.084Zm1.144 1.958.254.126.169-.292v-.125h-.169c-.169.028-.254.124-.254.291Zm-1.863 7.589c.169.084.31.125.423.125v.292c-.254 0-.537.14-.847.418v-.418c0-.14.141-.278.424-.417Zm64.17-60.415h1.864c4.49 0 8.019 1.987 10.589 5.963.79 1.75 1.37 3.446 1.737 5.085l-.169.751v.625c0 .222.055.431.169.626a26.357 26.357 0 0 1-2.33 7.213c0 .973-.734 2.46-2.202 4.461-.904.167-1.991.931-3.262 2.294-.96.417-2.217 1.126-3.77 2.127h.169c1.299-.39 2.076-.584 2.33-.584v.291L172.943 61c-1.948 0-3.966-.723-6.056-2.168-.82-.778-1.808-2.154-2.965-4.127 0-.14-.58-1.571-1.737-4.295-.113-1.223-.269-1.835-.466-1.835 0-3.697 1.976-6.726 5.93-9.09 1.44-.639 2.796-1.097 4.066-1.375 0-.111.042-.167.128-.167 1.327.278 2.216.792 2.668 1.543 0 .195.254.709.762 1.543v.458c0 .584-.564 1.306-1.694 2.168.198.028.297.125.297.292-.791.39-1.469 1.112-2.033 2.169v.29h.168l.806-.458h.593l-3.262 2.294c-1.158 1.194-1.892 2.377-2.203 3.544 0 .222.424.528 1.271.917h.762c1.892 0 4.546-.82 7.963-2.46 2.429-1.779 4.152-3.725 5.168-5.837.706-1.279 1.214-3.017 1.525-5.212V38.11c-.734-1.14-2.343-2.001-4.828-2.586-.932 0-1.709-.11-2.33-.333l-2.668.334v-.334c.141 0 .719-.096 1.736-.292h2.669l.762.125.169-.291-.338-.167c-.876.11-1.596.167-2.161.167l-2.372-.75h-.297c-.225 0-.437.04-.635.125a1.326 1.326 0 0 0-.593-.126l-.805.126c-.564-.695-.974-1.042-1.228-1.042-.423-.168-.635-.32-.635-.46 0-.11.212-.431.635-.959 0-.417-.268-.82-.805-1.209 1.243-.5 2.655-.75 4.236-.75ZM210.853.375a.867.867 0 0 1 .127.459l.212-.125v.125c-.142.305-.212.584-.212.834h.085l.593-.377.127.251c-1.101 2.78-1.652 4.295-1.652 4.545h-.127l.127.208-1.186 2.711h.339c.084-.556.254-.834.508-.834 0 .11.113.236.339.375.085-.167.127-.292.127-.375h.127c.141.028.212.11.212.25-.339.611-.579.917-.72.917v.126c.17.194.254.347.254.458h.127c.113 0 .268-.236.466-.71V8.63c.113 0 .269-.194.466-.584l-.127-.208.974-2.335c0-.139-.155-.291-.466-.458-.141 0-.311.153-.508.458.113 0 .311.195.593.584-.537.723-.89 1.223-1.059 1.501h-.212V7.38h-.254c0 .444-.084.666-.254.666-.141 0-.212-.069-.212-.208.283-.444.523-1.029.72-1.751.707-1.778 1.059-2.71 1.059-2.794l.339-.25h.127a3.565 3.565 0 0 0-.127.834c.254 0 .381.154.381.459l-.254.125.127.668h.212c.029-.39.311-.85.847-1.376 0 .083.042.125.127.125-.1.29-.313.53-.593.666 0 .084.043.125.127.125-.254 1.224-.536 2.28-.847 3.169l.254.125c.282-1.111.593-1.779.932-2 0 .082.042.125.127.125-.085.86-.211 1.403-.381 1.626h.381c0 .083-.043.125-.127.125l.127.583a349.449 349.449 0 0 0-3.685 11.09c.621 0 .932.029.932.084l.254-.083c1.609 0 3.106-.083 4.49-.25.169.083.296.124.382.124.112-.138 1.058-.263 2.837-.375.141.084.254.126.339.126a.98.98 0 0 1 .508-.126c0 .167.071.251.212.251.028-.167.113-.25.254-.25h1.059l.593-.084c0 .056.042.083.127.083 0-.11.706-.263 2.118-.458v.125l2.965-.459c.14.084.302.127.466.126.028-.168.112-.251.254-.251h.127a.9.9 0 0 1 .465.125.905.905 0 0 1 .467-.125l.254.125c0-.11.113-.235.339-.375.141.084.254.125.339.125.028-.139.113-.208.254-.208h.339l-.085.208h.339c0-.222.833-.458 2.499-.708a.904.904 0 0 0 .466.125c.254 0 .607-.154 1.059-.459 0 .167.113.25.339.25.225 0 .508-.126.847-.375a.89.89 0 0 1 .465.125c.17-.084.297-.125.382-.125l.211.125c.679-.362 1.469-.625 2.373-.792 0-.084.085-.125.253-.125.029.138.099.208.213.208.254 0 .776-.153 1.566-.458a.909.909 0 0 0 .467.125h.254v-.125c-.084-.14-.128-.251-.128-.334h.128a.89.89 0 0 1 .465.125l4.152-1.084h.127l-.127-.209v-.125c.141.029.211.112.211.25l.255-.125.254.126a54.728 54.728 0 0 1 5.294-1.419h.381v-.333h.467c.79-.138 1.186-.305 1.186-.5l.338.25c.425-.221 1.06-.459 1.907-.709v-.125l.593.125c1.327-.473 2.357-.737 3.092-.792 0-.084.084-.125.254-.125l.212.125 1.186-.5h.254l.339.25h.126l-.126-.25a4.71 4.71 0 0 0 1.186-.584h.338c0-.111.127-.222.381-.333 0 .11.114.222.339.333 0-.14.128-.209.382-.209l.593.126c0-.167.07-.251.211-.251.17.084.297.125.382.125l.593-.458h.084l-.084.208v.126h.084c1.327-.417 2.203-.765 2.627-1.042l.593.124c.027-.167.113-.25.254-.25l.212.125h.127v-.126h-.255v-.25l.847.126h.127l-.127-.209v-.125l1.06-.375v.125l-.128.251h.593c.254-.223 1.243-.502 2.965-.835.029-.11 1.059-.416 3.093-.916.027-.167.113-.251.254-.251l.211.125c.395-.167 1.907-.555 4.533-1.167 0-.084.028-.126.084-.126h.974l.593.126v-.46c.113 0 .58-.125 1.398-.374h.466v.126l-.084.249h.084c.989-.305 1.624-.459 1.906-.459v.084c-.084.222-1.539.653-4.363 1.293l-8.556 2.335v.249h.128c.734-.25 1.171-.375 1.312-.375v.125l.467-.208a.988.988 0 0 0 .338.083c.396-.194.593-.348.593-.459l.593.126c.396-.306.678-.46.848-.46l.593.126c.027-.167.113-.25.254-.25l.211.125c0-.25.523-.444 1.568-.584h.212v.334h.381l-.128-.584h.721l.677-.458h.128l.253.125c.029-.167.099-.25.212-.25h.128c0 .194.084.388.253.583l-.381.458c.085 0 .128.043.128.126h-.128c-.141 0-.212-.111-.212-.334-.169.029-.253.097-.253.208.169.084.296.126.381.126 0 .277-.566.43-1.695.458.085-.139.128-.25.128-.333h-.128c-.113.083-.339.125-.677.125 0 .138.113.208.338.208v.25l-.593.126-.126-.25c0-.084.042-.126.126-.126l-.126-.208v-.126h.381v-.124c-.085 0-.212-.042-.381-.126a1.32 1.32 0 0 1-.805.251v.25c.169 0 .395.11.677.334h.128l-.212.333c.056.167.084.292.084.376-.904.222-1.497.416-1.779.583-.141 0-.212-.083-.212-.25 1.186-.361 1.779-.598 1.779-.71h-.465v-.208h.212v-.25h-.128c-.508.556-1.059.834-1.652.834-.085-.166-.127-.291-.127-.375h-.084l-.382.25-.211-.125-.128.251h.339v.207c-1.411.418-2.118.695-2.118.835h.128l.804-.125v.125c0 .139-.635.375-1.906.708 0 .084-.071.126-.212.126-.254 0-.381-.167-.381-.501h-.212c-.338.557-.663.835-.974.835v-.126c-.31.167-.578.251-.805.251v-.25c.593-.14.946-.21 1.06-.21l-.128-.25c-4.348 1.167-6.551 1.835-6.607 2.002a45.736 45.736 0 0 0 5.21-1.418c0 .084.352.32 1.058.709-.282.139-.761.292-1.44.459v-.125l-.211.125h-.466c.113-.279.621-.431 1.524-.46 0-.166-.084-.25-.254-.25h-.593c-.734.252-1.2.376-1.398.376h-.253c0 .251-.636.473-1.907.667 0 .167-.225.25-.677.25l.084.25c.368-.166.89-.25 1.567-.25h.212c0-.305.24-.458.721-.458h.593v.208h-.212c-.255 0-.734.167-1.44.5-.621 0-1.61.306-2.965.917-.791 0-1.186.112-1.186.334a.992.992 0 0 0-.339-.083l-.509.209c0-.14-.071-.209-.212-.209 0 .278-.437.473-1.312.584l-.255-.126h-.084v.126h.211c0 .139-.07.208-.211.208l-.593-.125c-.029.112-.424.347-1.186.71 0-.085-.043-.126-.128-.126-.084.167-.126.292-.126.376h-.128c0-.168-.042-.25-.126-.25l-.213.125-.254-.126c-.084 0-.282.194-.593.584 0-.14-.07-.209-.211-.209h-.382c-.31.222-1.016.444-2.117.667-.085-.306-.24-.458-.467-.458-.169.083-.296.125-.381.125v.126c.339 0 .509.068.509.207-.48.195-.721.362-.721.5h.128l-.128.21v.125c2.824-.695 5.069-1.363 6.735-2.002.086 0 .128.041.128.125.621-.306 1.058-.46 1.312-.46l.212.126c0-.167 1.356-.598 4.067-1.293 9.262-2.64 14.627-4.113 16.096-4.419v.209l-13.724 3.877c-1.13.306-1.765.528-1.907.667-.366 0-2.301.514-5.802 1.544-.254.138-1.766.57-4.533 1.292-.112 0-.507.18-1.186.542a.983.983 0 0 0-.338-.084c-.085.14-.127.251-.127.334l-.593-.125h-.128v.125h.255v.25c-1.977.362-3.079.71-3.304 1.042-.17-.083-.296-.125-.381-.125-.311.278-1.652.709-4.024 1.293 0 .083-.042.125-.128.125-.141-.083-.253-.126-.338-.126l-.127.209-.593-.083c-.254 0-.523.152-.805.458-.17-.083-.297-.125-.381-.125l-.128.25-.211-.125h-.254c0 .222-.071.334-.212.334h-.254l-.593-.125c0 .167-.198.334-.593.5l-.72-.125c-1.045.695-5.62 1.78-13.724 3.252-1.977.39-4.546.778-7.709 1.167v-.124c-4.602.723-9.432 1.084-14.486 1.084h-.212c-.283.278-1.073 3.03-2.371 8.256-3.813 11.814-6.863 20.055-9.149 24.724-.198.695-.707 1.363-1.526 2.002h-.254c-.791 0-1.186-.083-1.186-.25l-.211.125h-.128L191.072 60a1.38 1.38 0 0 0-.381.083c-.565 0-1.116-.389-1.652-1.168 1.892-3.919 3.276-7.101 4.151-9.548l2.119-5.504c0-.194.437-1.389 1.312-3.585 1.102-3.252 2.245-7.185 3.431-11.8.141 0 .466-.889.974-2.668-3.812-.64-6.339-1.419-7.582-2.335-.395 0-1.468-.778-3.219-2.335v-.376h.254v-.208c-.395-.584-.635-1.32-.719-2.21-.086 0-.128-.041-.128-.125l.128-.25a.864.864 0 0 1-.128-.458h.128l-.128-.251v-.083c.084-1.168.325-1.751.721-1.751l5.549 2.543 3.557.96.254-.126c.452.139 1.44.334 2.966.584.395-1.001.79-2.252 1.186-3.753a47.655 47.655 0 0 1 1.99-6.17c.113-.612.31-.918.593-.918 0-.083-.028-.125-.085-.125 0-.75.311-1.418.932-2.001l-.127-.209c.537-.389.89-.584 1.059-.584 0-.25-.028-.375-.085-.375 0-.167.113-.625.339-1.376h.593c.508-1.584 1.101-2.752 1.779-3.502Zm1.059 1.96h.254v.376h-.508v-.126c.029-.167.113-.25.254-.25Zm78.954.583v.251c-.565.139-.89.208-.975.208l-.127-.208c.367-.167.734-.25 1.102-.25Zm.593.376h.339v.207h-.593c.027-.139.112-.208.254-.208v.001Zm-.382.208c0 .195-.465.347-1.397.46l-.128-.21c.791-.166 1.299-.25 1.525-.25Zm1.652.125h.255c0 .195-.354.306-1.06.334v-.21l.805-.124Zm-6.861.917v.125h.126c.622-.083.932-.194.932-.333h-.127c-.056 0-.367.068-.931.208Zm4.616-.333v.25l-.211-.125c0 .14-.086.209-.254.209h-.128c-.141 0-.211-.07-.211-.21l.804-.124Zm-.804.25-.254.334c.084.139.126.25.126.334h-.126l-.339-.21h-.382l.128.21v.125h-.255c-.113 0-.226-.112-.338-.335.169-.166.649-.318 1.44-.458Zm-1.779.334.211.584-.339.25h-.126c-.17 0-.255-.084-.255-.25h.509v-.126h-.509c0 .167-.071.251-.212.251-.17 0-.254-.084-.254-.25 0-.14.325-.292.975-.46Zm-1.78.458h.593c0 .306.071.46.212.46h.975v.125c0 .166-.368.291-1.102.374v-.125l.127-.25c-.423 0-.692-.153-.805-.458v-.126Zm-.593.376-.127.208v.125a.901.901 0 0 1 .467-.125V5.71a.987.987 0 0 1-.34-.083v.001Zm-74.548.082-.127.584c.113 0 .268-.152.466-.458l-.254-.126h-.085Zm73.235.377v.207c.17 0 .255.084.255.251h.338c.17 0 .255-.084.255-.25-.17 0-.255-.07-.255-.21h.339v-.25c-.225.168-.536.252-.932.252Zm2.499.333h.212v.25h-.465c.028-.166.112-.25.253-.25Zm-76.115.25c0 .111-.071.264-.212.459v.125c.114 0 .268-.154.466-.46l-.254-.124Zm68.28.917c.084 0 .197.042.338.126h.127v-.126c-.141 0-.211-.07-.211-.208-.17.028-.254.096-.254.208Zm-6.058-.208h.128v.083c0 .167-.071.25-.212.25l-.127-.25.211-.083Zm2.838.458a.863.863 0 0 1 .127.46h.128c0-.14.112-.335.338-.584h-.212c-.169.083-.296.125-.381.125v-.001Zm2.753-.125.128.25c.141-.083.254-.125.339-.125v-.125h-.467Zm.721.333h.084c.17 0 .255-.069.255-.208h-.128c-.141.029-.211.097-.211.208Zm5.209-.332h.34v.25h-.34v-.251Zm-72.896 1.499c.226 0 .424-.389.593-1.168h-.127c-.225 0-.381.39-.466 1.168Zm62.434-.667 1.441-.375v-.126h-.128c-.875.112-1.313.28-1.313.501Zm3.939-.125h.212c.17-.083.297-.126.381-.126v-.124h-.381c-.141.028-.212.11-.212.25Zm5.677-.376.126.251-.338.25h-.848c0-.139.354-.306 1.06-.5Zm-3.431.251h.465c0 .167-.07.25-.211.25h-.254v-.25Zm-7.244.333v.251h.128l.254-.125a.904.904 0 0 0 .465.125h.128c0-.112-.155-.222-.466-.334 0 .056-.042.083-.127.083v-.082a1.366 1.366 0 0 1-.382.083Zm8.556-.083h.128c.141 0 .211.07.211.209v.125h-.339v-.334Zm-15.884 2.21v.125h.339c.283-.167.805-.334 1.568-.5 0 .111.113.236.339.376h.126c-.169-.195-.253-.32-.253-.377.253-.139.493-.208.72-.208l.593.125-.127-.25 3.684-1.042v-.25l-6.989 2Zm14.698-1.876h.467c0 .167-.085.25-.255.25h-.212v-.25Zm-6.395.25v.208c.253 0 .451.042.593.126v-.251l-.593-.083Zm-67.814.584v.583h.127l.128-.583h-.255Zm66.374 0c.028.139.112.208.254.208h.127c0-.139-.085-.208-.255-.208h-.126Zm-7.582.083v.125h.465v-.125h-.465Zm12.198 0h.382c0 .167-.085.25-.254.25h-.128v-.25Zm-66.966.5v.209c.169-.083.297-.126.381-.126v-.332h-.127c-.169.027-.254.11-.254.25Zm-1.398-.125v.334c.141 0 .211-.07.211-.209v-.125h-.211Zm67.771-.125v.25l-.593.083c0-.166.198-.278.593-.333Zm-1.397.333h.593v.251c-.283.083-.452.126-.509.126l-.084-.251v-.126Zm-11.522.96v.125h.254c.141 0 .382-.084.721-.25.141.083.254.124.339.124l.126-.25h-.254c-.198 0-.593.084-1.186.252v-.002Zm-3.769-.126v.125h.466v-.125h-.466Zm2.372.71h.339l.338-.252c.17.084.297.126.381.126l.128-.25c-.17 0-.254-.027-.254-.083-.622.167-.932.32-.932.458Zm4.828.125h.127c.17 0 .254-.084.254-.251h-.126c-.17.029-.255.112-.255.25Zm1.567 0c0-.084-.042-.126-.126-.126 0 .14-.833.404-2.5.792v.251h.382c.198-.14 1.144-.444 2.837-.917v-.251h-.253l-.34.25Zm-5.591 1.042h.382v-.251h-.128c-.168.029-.254.112-.254.25Zm1.314 0v.208l1.186-.083v-.125c-.085 0-.198-.042-.339-.126-.276.079-.56.121-.847.126Zm-55.362.125v.333h.382v-.333h-.382Zm52.269.791v.126h.254c.283 0 1.144-.236 2.584-.708v-.126h-.338c-.452.251-1.285.487-2.5.71v-.002Zm-.211-.332h.211c.17-.084.297-.126.382-.126v-.125h-.382c-.141.029-.211.112-.211.25Zm-2.754.709v.208l.848-.125-.127-.209-.721.126Zm-.593.083v.125h.509l-.127-.208a1.37 1.37 0 0 1-.382.083Zm2.5.125h.254c.141 0 .211-.07.211-.208h-.211c-.17 0-.254.07-.254.208Zm-1.398.125v.25c.254 0 .452.028.593.083 0-.222.225-.333.677-.333v-.25h-.084c-.565.167-.961.25-1.186.25Zm-2.753.25v.083h.465c.17 0 .255-.07.255-.208-.085 0-.127-.042-.127-.125-.254.166-.452.25-.593.25Zm1.906.083v.126a.903.903 0 0 0 .466-.126l.254.126h.127v-.126c-.254 0-.381-.11-.381-.333-.311.111-.466.223-.466.333Zm-3.558.96v.125h.126l1.526-.376c.169.084.296.125.381.125v.125c0 .14-.085.209-.254.209a1.28 1.28 0 0 1-.467-.083l-.719.333-.255-.126c0 .112-.197.265-.593.46h-.212l-.253-.126c0 .167-.198.251-.593.251l.127.25-.255.084c0-.14-.071-.21-.212-.21-.168.085-.296.126-.381.126.17.195.255.347.255.458h.254l-.128-.25v-.125l.593.125c.142 0 .212-.07.212-.208l.255.084h.254l-.128-.21.212-.125c.029.168.114.251.255.251h.254l-.128-.25.212-.125v.25c1.018-.194 1.695-.472 2.034-.834l-.127-.209.381-.583h-.593v.334h-.128v-.334l-1.905.583Zm-2.034.667h.509c.141 0 .212-.07.212-.21h-.466c-.17.03-.255.1-.255.21Zm-3.049.708v.126h.466v-.251h-.127c-.141.084-.254.125-.339.125Zm2.711 0v.126c.028.167.113.25.254.25h.084v-.376h-.338Zm-.932.126a.864.864 0 0 1-.128.458h.339v-.208l.254.083h.339v-.083c0-.167-.07-.251-.211-.251h-.593Zm-.593.25c0 .139-.085.208-.254.208.028.167.113.251.254.251h.211v-.125l-.126-.251c.084 0 .126-.027.126-.083h-.211Zm-4.024 1.042.084.208c-.141.084-.254.126-.338.126.028.167.113.25.254.25.847-.333 1.398-.612 1.652-.834.198 0 .423.084.678.25l.126-.25c-.084 0-.126-.042-.126-.126l.593.126.719-.209c0-.166-.07-.25-.211-.25h-.127l-.381.25c0-.166-.028-.25-.085-.25-.17.084-.296.125-.382.125v-.125c-1.242.472-2.061.709-2.456.709Zm-1.567.584c.028.139.112.208.254.208.564 0 .875-.111.932-.333l-.593-.125v.25h-.128v-.25h-.211c-.17.028-.254.11-.254.25Zm-.932.125v.083l.72.125c0-.11-.127-.221-.381-.333-.141.084-.254.125-.339.125Zm-28.888 9.674h.297c0 .39.056.584.169.584l-.169.709v1.418c0 .11-.043.166-.127.166l.127.292-.127.709h.423c.113-.917.311-1.737.593-2.46h.721c.028-.167.126-.25.296-.25l.593.417.127-.584h.296v1c.17 0 .368-.472.593-1.418h.424c0 .39.099.584.297.584v1.126c0 .084-.057.126-.17.126.113.167.17.458.17.875h.127v-.708h.296v.583c-.198.5-.395 2.349-.593 5.546-.198.64-.677 3.877-1.44 9.715-.085 0-.127.152-.127.458l.127.251c-.198.527-.833 4.35-1.906 11.465-.113 0-.494.376-1.143 1.126-2.909-.194-4.363-.487-4.363-.876l-1.018.167c-1.636-.222-2.456-.555-2.456-1v-.71c.48 0 1.596-4.96 3.347-14.885.141-1.389.339-2.334.593-2.835l-.17-.292c.198-1.111.734-3.251 1.609-6.42 0-.474.043-.709.128-.709l-.128-.292c.254-.667.452-1.001.593-1.001 0 .084.043.125.128.125.225-1.139.508-2.002.847-2.585l.297.166h.168c0-.193.043-.29.128-.29h.423v-.293Zm38.673-8.256h.126v.377l-.126.291c.168.027.254.126.254.291l-.763 1.335v.167h.127c0-.278.254-.598.762-.96v.126c-.027.166-.452.847-1.27 2.043v.167c.762-.473 1.144-.848 1.144-1.126h.126v.167c0 .472-.338.972-1.016 1.5l-.254-.166-.17.291v.126h.424l-.127.291c.113 0 .24.14.381.418v.125l-.678 1.084v.166h.297v.125c0 .14-.141.278-.423.417 0-.194-.086-.291-.255-.291l-.254.834h.127l.508-.417h.17c0 .139-.184.319-.551.542l.127.291c0 .14-.339.459-1.016.96.423.027.635.166.635.416-.621 1.14-1.186 1.82-1.695 2.044-.338.444-.592.666-.761.666v.293h.254v-.293c.169 0 .253.14.253.417h.128l1.567-2.042h.127c-.706 1.417-2.089 3.473-4.152 6.17h-.126v-.125l.551-.959h-.128l-1.567 1.335c-.057.278-.268.653-.635 1.125l.254.125h.127l1.144-1.251.127.292c-1.469 2.307-2.329 3.947-2.584 4.921-.084 0-.635.875-1.652 2.627-1.581 1.528-3.007 3.349-4.278 5.46-.678 1.168-1.37 2.587-2.075 4.254-1.469 2.975-2.288 4.573-2.457 4.795l-.89.834c-.113 0-.169-.042-.169-.125l-.254.125c-.452-.334-1.398-.653-2.838-.96 0-.11-.339-.291-1.016-.541l-.255.125c-1.469-.362-2.203-1.14-2.203-2.335-.536-2.418-1.228-6.574-2.075-12.466-.508-1.862-1.2-5.06-2.076-9.59h-.126c0-1.085.48-1.627 1.44-1.627 1.468 0 3.148.764 5.04 2.294.311 0 .65.278 1.017.833 0 .083-.043.126-.127.126.254.722 1.073 4.294 2.456 10.715h-.126c.168.556.254.917.254 1.084h.126l8.684-12.884c0-.056 1.369-2.057 4.109-6.004 0-.166 1.129-1.723 3.388-4.67 0-.36.861-1.5 2.584-3.419.254 0 .677-.096 1.27-.291l.297.126c0-.084.254-.348.763-.794Zm-1.695 4.629v.291h.254c0-.222.085-.458.255-.708v-.125c-.114 0-.284.18-.509.542Zm-.889 5.629-.127.291v.126h.127c0-.112.042-.251.126-.417h-.126Zm14.909-1.668c3.361 0 6.297 1.32 8.811 3.96.507 1.197.903 2.628 1.186 4.295 0 .084-.043.126-.128.126l.128.833v1c0 1.474-1.228 3.308-3.686 5.504-4.687 2.808-7.822 4.212-9.403 4.212-.198-.084-.339-.125-.423-.125 0 .166-.099.25-.297.25-.113 0-.17-.042-.17-.125l-.719.125h-.467c-.141 0-.282-.125-.423-.376l.127-.25c-.395-.472-.734-.708-1.016-.708-1.949-1.723-2.923-3.086-2.923-4.086l.297-.126h2.202c2.598-.5 5.775-2.014 9.531-4.544 1.665-1.64 2.498-2.682 2.498-3.127l-2.033-.376h-1.779c-2.626.222-6.056 1.793-10.293 4.712-2.174 1.891-3.543 4.127-4.108 6.712.931 2.335 4.8 4.657 11.606 6.964 2.061.64 4.715 1.32 7.963 2.043l.127.25c-.198.028-.297.097-.297.209l.297.125c.197 0 .296-.112.296-.334h.721v.209h-.424v.25h.296c1.074 0 1.61.208 1.61.625 0 .222.198.334.593.334v.375c0 .167-.099.251-.296.251h-.721c-.762 0-1.99-.168-3.684-.502v.251h.423v.251h-.423c-.255-.168-.452-.25-.593-.25v-.252h.296v-.125h-.424l-.465.25h-.128c-.734 0-1.129-.125-1.186-.375h.721c0-.139-.099-.208-.297-.208h-.424c0 .139-.198.208-.593.208v.126c.283 0 .819.208 1.61.625l.465-.25h.128v.125l-.128.25h.128c.198-.084.353-.125.465-.125l3.051.96c.395 0 .593.069.593.208h-.297l-1.736-.084h-.17v.084c.084 0 .382.041.889.125v.125c0 .111-.24.277-.719.5-.255-.167-.452-.25-.593-.25l-.297.125c-.763-.334-1.257-.5-1.482-.5h-.128l1.314.75c-.396 0-.593.195-.593.584h-.89c-.791 0-1.426-.167-1.906-.501-3.332-.805-6.862-2.084-10.59-3.836-2.513-1.723-4.235-3.238-5.167-4.544-1.158-1.112-2.089-3.794-2.796-8.047l-.126-1.46c.197-1.861.536-3.224 1.016-4.085.649-1.196 1.737-2.35 3.261-3.461 0-.417.876-1.057 2.626-1.919 1.413-.805 2.443-1.528 3.093-2.168 2.513-1.195 4.87-1.792 7.073-1.792Zm8.811 11.382c0 .14-.339.668-1.017 1.584h.127c.48 0 .875-.527 1.186-1.584h-.296Zm-1.186 1.71c-.227.695-1.737 1.89-4.533 3.585-2.936 1.446-4.504 2.168-4.702 2.168v.126h.425c4.348-1.306 7.44-3.225 9.275-5.754l-.296-.125h-.169Zm-6.312 15.343h.466v-.208h-.169c-.198 0-.297.07-.297.208Zm5.465.877h.423v.208h-.423v-.209Zm-5.295.708v.25c.084 0 .225.028.423.084l.128-.209c-.198 0-.382-.041-.551-.125Zm1.313 1.084c.226 0 .424.042.592.126l.128-.251-.296-.126h-.128c-.198.03-.296.112-.296.251Z"/>
</svg>