<svg width="119" height="155" viewBox="0 0 119 155" fill="none" xmlns="http://www.w3.org/2000/svg">
<g clip-path="url(#clip0_104_25)">
<path fill-rule="evenodd" clip-rule="evenodd" d="M114.687 77.5L98.5685 109.792C97.2081 112.497 94.8318 115.089 91.9838 115.897C91.996 116.017 92.0596 116.125 92.0596 116.25V122.708C92.0596 126.278 89.149 129.166 85.5517 129.166V135.625C85.5517 139.195 82.6411 142.083 79.0428 142.083V148.541C79.0428 152.112 76.1322 154.1 72.5349 154.1H46.5013C42.905 154.1 39.9935 152.112 39.9935 148.541V142.083C36.3961 142.083 33.4846 139.195 33.4846 135.625V129.166C29.8873 129.166 26.9767 126.278 26.9767 122.708V116.25C26.9767 116.136 27.0342 116.043 27.0403 115.935C24.256 115.203 22.2038 112.63 20.4688 109.792L4.34956 77.5C2.18228 71.433 0.943115 64.931 0.943115 58.125C0.943115 26.023 27.1676 0 59.5181 0C91.8697 0 118.093 26.023 118.093 58.125C118.093 64.931 116.854 71.433 114.687 77.5ZM46.5013 148.541H72.5349V142.083H46.5013V148.541ZM39.9935 135.625H46.5013H72.5349H79.0428V129.166H39.9935V135.625ZM33.4846 122.708H39.9935H79.0428H85.5517V116.25H33.4846V122.708ZM59.5181 12.917C34.3561 12.917 13.9599 33.149 13.9599 58.125C13.9599 65.069 15.5869 71.622 18.4025 77.5L31.591 103.333H87.5857L100.634 77.5C103.449 71.622 105.076 65.069 105.076 58.125C105.076 33.149 84.6811 12.917 59.5181 12.917ZM59.5181 25.833V19.375C81.0838 19.375 98.5685 36.726 98.5685 58.125H92.0596C92.0596 40.29 77.4926 25.833 59.5181 25.833Z" fill="#130E27"/>
</g>
<defs>
<clipPath id="clip0_104_25">
<rect width="117.15" height="155" fill="white" transform="translate(0.943115)"/>
</clipPath>
</defs>
</svg>
