<svg width="152" height="150" viewBox="0 0 152 150" fill="none" xmlns="http://www.w3.org/2000/svg">
<g clip-path="url(#clip0_103_23)">
<path fill-rule="evenodd" clip-rule="evenodd" d="M76.0089 150C34.1803 150 0.265381 116.421 0.265381 75C0.265381 33.579 34.1803 0 76.0089 0C117.839 0 151.752 33.579 151.752 75C151.752 116.421 117.839 150 76.0089 150ZM82.3209 12.815V18.75C82.3209 22.201 79.4972 25 76.0089 25C72.5207 25 69.697 22.201 69.697 18.75V12.815C39.8823 15.747 16.1685 39.224 13.2094 68.75H19.2013C22.6905 68.75 25.5132 71.545 25.5132 75C25.5132 78.454 22.6905 81.25 19.2013 81.25H13.2094C16.1685 110.776 39.8823 134.254 69.697 137.185V131.25C69.697 127.796 72.5207 125 76.0089 125C79.4972 125 82.3209 127.796 82.3209 131.25V137.185C112.137 134.254 135.849 110.776 138.808 81.25H132.817C129.328 81.25 126.505 78.454 126.505 75C126.505 71.545 129.328 68.75 132.817 68.75H138.808C135.849 39.224 112.137 15.747 82.3209 12.815ZM62.6205 88.258L35.8447 79.413L107.255 44.055L71.5471 114.771L62.6205 88.258ZM93.1391 58.032L52.2901 78.26L64.6181 82.324L67.6135 83.314L68.6053 86.28L72.7176 98.48L93.1391 58.032Z" fill="#130E27"/>
</g>
<defs>
<clipPath id="clip0_103_23">
<rect width="151.487" height="150" fill="white" transform="translate(0.265381)"/>
</clipPath>
</defs>
</svg>
